<svg xmlns="http://www.w3.org/2000/svg" width="50.444" height="50" viewBox="0 0 50.444 50"><g id="icon" transform="translate(22 15)"><path id="icon-2" data-name="icon" d="M7.329,23.057A12.04,12.04,0,1,1,12,24,11.956,11.956,0,0,1,7.329,23.057ZM2.182,12A9.818,9.818,0,1,0,12,2.182,9.829,9.829,0,0,0,2.182,12ZM3.35,12A8.65,8.65,0,1,1,12,20.65,8.66,8.66,0,0,1,3.35,12ZM7.76,8.563v6.875a.8.8,0,0,0,.8.8h6.875a.8.8,0,0,0,.8-.8V8.563a.8.8,0,0,0-.8-.8H8.563A.8.8,0,0,0,7.76,8.563Zm1.347,6.33V9.107h5.785v5.786Z" transform="translate(-9 -15)" fill="#fff"></path><path id="icon-3" data-name="icon" d="M2,25a2,2,0,0,1-2-2V12.185a2,2,0,0,1,2-2h.778V7.408h0c0-.09,0-.167,0-.232a7.176,7.176,0,1,1,14.352,0c0,.076,0,.155,0,.231h0v.925H14.352V7.408a4.727,4.727,0,0,0-1.29-3.272A4.26,4.26,0,0,0,9.954,2.778a4.523,4.523,0,0,0-4.4,4.63v2.777H17.445a2,2,0,0,1,2,2V23a2,2,0,0,1-2,2ZM7.407,17.13A2.317,2.317,0,0,0,8.8,19.252v1.581a.926.926,0,0,0,1.852,0V19.252A2.315,2.315,0,1,0,7.407,17.13Z" transform="translate(9 10)" fill="#fff"></path><path id="icon-4" data-name="icon" d="M22.607,23.761l-.847-.847a2.449,2.449,0,0,0,1-3.518c-.228-.358-.572-.9-.986-1.534a8.683,8.683,0,0,0,.9-3.142h5.146a13.831,13.831,0,0,1-4.059,9.041.816.816,0,0,1-1.155,0Zm-18.547,0A13.831,13.831,0,0,1,0,14.72H5.146a8.749,8.749,0,0,0,2.541,5.413.817.817,0,0,1,0,1.155L5.214,23.761a.817.817,0,0,1-1.154,0Zm16.2-2.365c-.7-.447-6.9-4.406-8.164-5.667a2.561,2.561,0,0,1,3.622-3.622c1.261,1.261,5.22,7.461,5.667,8.164A.815.815,0,0,1,20.264,21.4Zm2.412-8.307a8.716,8.716,0,0,0-1.994-4.8l3.637-3.637a13.813,13.813,0,0,1,3.5,8.441ZM0,13.09A13.815,13.815,0,0,1,3.5,4.649L7.139,8.286a8.722,8.722,0,0,0-1.994,4.8ZM14.725,5.144V0a13.812,13.812,0,0,1,8.44,3.5L19.528,7.134A8.713,8.713,0,0,0,14.725,5.144ZM4.655,3.5A13.813,13.813,0,0,1,13.1,0V5.144a8.715,8.715,0,0,0-4.8,1.99Z" transform="translate(-22 11)" fill="#fff"></path></g></svg>